<?xml version="1.0" encoding="UTF-8"?>
<svg viewBox="0 0 256 256" version="1.1" xmlns="http://www.w3.org/2000/svg" xmlns:xlink="http://www.w3.org/1999/xlink">
    <title>TAG-CHINA</title>
    <defs>
        <linearGradient x1="50%" y1="0%" x2="50%" y2="99.3580638%" id="linearGradient-1">
            <stop stop-color="#ED4111" offset="0%"></stop>
            <stop stop-color="#D61F07" offset="100%"></stop>
        </linearGradient>
        <path d="M97.4276376,-3.93619317e-15 L158.572362,3.93619317e-15 C192.450075,-2.28704159e-15 204.734952,3.52737322 217.120137,10.1510427 C229.505322,16.7747123 239.225288,26.4946781 245.848957,38.8798633 C252.472627,51.2650485 256,63.5499255 256,97.4276376 L256,158.572362 C256,192.450075 252.472627,204.734952 245.848957,217.120137 C239.225288,229.505322 229.505322,239.225288 217.120137,245.848957 C204.734952,252.472627 192.450075,256 158.572362,256 L97.4276376,256 C63.5499255,256 51.2650485,252.472627 38.8798633,245.848957 C26.4946781,239.225288 16.7747123,229.505322 10.1510427,217.120137 C3.52737322,204.734952 1.52469439e-15,192.450075 -2.62412878e-15,158.572362 L2.62412878e-15,97.4276376 C-1.52469439e-15,63.5499255 3.52737322,51.2650485 10.1510427,38.8798633 C16.7747123,26.4946781 26.4946781,16.7747123 38.8798633,10.1510427 C51.2650485,3.52737322 63.5499255,2.28704159e-15 97.4276376,-3.93619317e-15 Z" id="path-2"></path>
        <filter x="-14.5%" y="-14.5%" width="128.9%" height="128.9%" filterUnits="objectBoundingBox" id="filter-3">
            <feGaussianBlur stdDeviation="24" in="SourceAlpha" result="shadowBlurInner1"></feGaussianBlur>
            <feOffset dx="0" dy="-26" in="shadowBlurInner1" result="shadowOffsetInner1"></feOffset>
            <feComposite in="shadowOffsetInner1" in2="SourceAlpha" operator="arithmetic" k2="-1" k3="1" result="shadowInnerInner1"></feComposite>
            <feColorMatrix values="0 0 0 0 0.260048687   0 0 0 0 0.0432662084   0 0 0 0 0.0150340647  0 0 0 0.451240166 0" type="matrix" in="shadowInnerInner1"></feColorMatrix>
        </filter>
        <filter x="-5.2%" y="-15.2%" width="110.5%" height="130.4%" filterUnits="objectBoundingBox" id="filter-4">
            <feOffset dx="0" dy="1" in="SourceAlpha" result="shadowOffsetOuter1"></feOffset>
            <feGaussianBlur stdDeviation="2" in="shadowOffsetOuter1" result="shadowBlurOuter1"></feGaussianBlur>
            <feColorMatrix values="0 0 0 0 0.84595788   0 0 0 0 0.299572287   0 0 0 0 0.228415076  0 0 0 1 0" type="matrix" in="shadowBlurOuter1" result="shadowMatrixOuter1"></feColorMatrix>
            <feMerge>
                <feMergeNode in="shadowMatrixOuter1"></feMergeNode>
                <feMergeNode in="SourceGraphic"></feMergeNode>
            </feMerge>
        </filter>
        <path d="M6.08101267,2.01264783 L38.3334921,2.17928259 C39.9903242,2.18784274 41.3265127,3.53790993 41.3179525,5.19474206 C41.316922,5.39421246 41.2959996,5.59308279 41.2554961,5.78840039 L28.8556741,65.5832813 C28.5645045,66.9873702 27.3203965,67.9890875 25.8865149,67.9739564 L13.1965992,67.8400461 C11.5398372,67.8225631 10.2109389,66.4653194 10.2284219,64.8085574 C10.2304144,64.6197403 10.2502293,64.4315331 10.2876028,64.246441 L18.6718006,22.7237631 C18.9997319,21.0996858 17.948998,19.5172702 16.3249207,19.1893389 C16.1194219,19.1478449 15.9101398,19.1280061 15.7005046,19.1301475 L3.73447884,19.2523825 C2.07771103,19.2693066 0.720915612,17.9399507 0.703991456,16.2831829 C0.701769455,16.065663 0.72321252,15.8485466 0.767942383,15.6356639 L3.1296206,4.39573271 C3.42262076,3.00125756 4.65610712,2.00528596 6.08101267,2.01264783 Z" id="path-5"></path>
        <filter x="-6.0%" y="-3.8%" width="111.9%" height="107.6%" filterUnits="objectBoundingBox" id="filter-6">
            <feGaussianBlur stdDeviation="2" in="SourceAlpha" result="shadowBlurInner1"></feGaussianBlur>
            <feOffset dx="0" dy="1" in="shadowBlurInner1" result="shadowOffsetInner1"></feOffset>
            <feComposite in="shadowOffsetInner1" in2="SourceAlpha" operator="arithmetic" k2="-1" k3="1" result="shadowInnerInner1"></feComposite>
            <feColorMatrix values="0 0 0 0 0.249830163   0 0 0 0 0.0373745543   0 0 0 0 0.0373745543  0 0 0 0.275841346 0" type="matrix" in="shadowInnerInner1"></feColorMatrix>
        </filter>
        <path d="M45.5523067,20.5586859 L49.3982738,3.55868593 C49.6044861,2.64718335 50.4144391,2 51.3489767,2 L59.4969904,2 C60.6015599,2 61.4969904,2.8954305 61.4969904,4 C61.4969904,4.14847853 61.4804561,4.29649533 61.4476933,4.44131407 L57.6017262,21.4413141 C57.3955139,22.3528167 56.5855609,23 55.6510233,23 L47.5030096,23 C46.3984401,23 45.5030096,22.1045695 45.5030096,21 C45.5030096,20.8515215 45.5195439,20.7035047 45.5523067,20.5586859 Z" id="path-7"></path>
        <filter x="-14.7%" y="-11.9%" width="129.4%" height="123.8%" filterUnits="objectBoundingBox" id="filter-8">
            <feGaussianBlur stdDeviation="2" in="SourceAlpha" result="shadowBlurInner1"></feGaussianBlur>
            <feOffset dx="0" dy="1" in="shadowBlurInner1" result="shadowOffsetInner1"></feOffset>
            <feComposite in="shadowOffsetInner1" in2="SourceAlpha" operator="arithmetic" k2="-1" k3="1" result="shadowInnerInner1"></feComposite>
            <feColorMatrix values="0 0 0 0 0.249830163   0 0 0 0 0.0373745543   0 0 0 0 0.0373745543  0 0 0 0.275841346 0" type="matrix" in="shadowInnerInner1"></feColorMatrix>
        </filter>
        <path d="M88.3425895,4.12393033 L56.3033292,62.0297615 C55.2338107,63.962745 55.9337873,66.3967538 57.8667708,67.4662724 C58.465391,67.7974885 59.138959,67.9696315 59.8230926,67.9662472 L70.5503624,67.913181 C72.0722573,67.9056524 73.4580263,67.0351286 74.1254356,65.6673619 L102.270155,7.98849965 C103.238935,6.0031131 102.414813,3.60828766 100.429427,2.63950732 C99.9139636,2.38798429 99.3504373,2.25025569 98.7770674,2.23566261 L91.9443385,2.06175991 C90.4531635,2.02380738 89.0647513,2.81873857 88.3425895,4.12393033 Z" id="path-9"></path>
        <filter x="-4.8%" y="-3.8%" width="109.6%" height="107.6%" filterUnits="objectBoundingBox" id="filter-10">
            <feGaussianBlur stdDeviation="2" in="SourceAlpha" result="shadowBlurInner1"></feGaussianBlur>
            <feOffset dx="0" dy="1" in="shadowBlurInner1" result="shadowOffsetInner1"></feOffset>
            <feComposite in="shadowOffsetInner1" in2="SourceAlpha" operator="arithmetic" k2="-1" k3="1" result="shadowInnerInner1"></feComposite>
            <feColorMatrix values="0 0 0 0 0.249830163   0 0 0 0 0.0373745543   0 0 0 0 0.0373745543  0 0 0 0.275841346 0" type="matrix" in="shadowInnerInner1"></feColorMatrix>
        </filter>
        <path d="M110.757032,7.78846343 L98.7062137,34.8815939 C98.5761354,35.1740412 98.5181458,35.4934368 98.537117,35.8129456 L98.7882802,40.0429683 C98.830283,40.7503697 98.290871,41.3578819 97.5834695,41.3998848 C97.5262665,41.4032813 97.4689001,41.402842 97.4117558,41.3985698 L97.3769426,41.3959671 C96.5227518,41.3321066 95.7227301,41.8192944 95.3874306,42.6075167 L90.1705865,54.8712769 C89.7382113,55.8877047 90.2116795,57.0621916 91.2281073,57.4945668 C91.4692635,57.5971515 91.72823,57.6513408 91.9902845,57.6540542 L97.8201638,57.7144179 C98.8752461,57.7253424 99.7403508,58.5540317 99.7966114,59.6076696 L100.143634,66.1066411 C100.200321,67.168259 101.077659,68 102.140789,68 L118.772783,68 C119.877352,68 120.772783,67.1045695 120.772783,66 C120.772783,65.9283836 120.768936,65.8568189 120.761259,65.7856152 L114.572895,8.38688643 C114.454494,7.28868113 113.468239,6.4943932 112.370034,6.61279467 C111.661264,6.68920972 111.046748,7.13711194 110.757032,7.78846343 Z" id="path-11"></path>
        <filter x="-7.8%" y="-3.7%" width="115.6%" height="107.5%" filterUnits="objectBoundingBox" id="filter-12">
            <feGaussianBlur stdDeviation="2" in="SourceAlpha" result="shadowBlurInner1"></feGaussianBlur>
            <feOffset dx="0" dy="1" in="shadowBlurInner1" result="shadowOffsetInner1"></feOffset>
            <feComposite in="shadowOffsetInner1" in2="SourceAlpha" operator="arithmetic" k2="-1" k3="1" result="shadowInnerInner1"></feComposite>
            <feColorMatrix values="0 0 0 0 0.249830163   0 0 0 0 0.0373745543   0 0 0 0 0.0373745543  0 0 0 0.275841346 0" type="matrix" in="shadowInnerInner1"></feColorMatrix>
        </filter>
        <path d="M157.181126,3.53999193 L156.367522,3.80842352 C155.818992,3.98939952 155.277475,4.19097466 154.744121,4.41272016 L153.113373,5.09071475 C152.37436,5.39796484 151.679097,5.80134242 151.045572,6.29041255 C150.409802,6.78121553 149.746424,7.23517656 149.058703,7.65006246 L148.056953,8.25439411 C147.3541,8.67840845 146.695526,9.17181818 146.091112,9.72722167 L145.493,10.2768329 C145.285821,10.467212 145.075166,10.6537733 144.861141,10.8364226 L144.318865,11.2992025 C143.744648,11.7892416 143.219101,12.333594 142.749544,12.9246784 L141.86713,14.0354736 C141.834216,14.0769055 141.801446,14.118451 141.768819,14.1601091 L140.900421,15.2688877 C140.845332,15.3392248 140.790655,15.4098822 140.73639,15.4808565 L139.954448,16.503577 C139.379541,17.2555114 138.855945,18.0453232 138.387217,18.8676474 L138.055312,19.4499321 C137.775559,19.9407242 137.477818,20.4210427 137.162696,20.8899104 L136.908865,21.2675833 C136.426123,21.9858515 136.030374,22.7588984 135.729927,23.5704899 L135.490617,24.2169325 C135.345756,24.6082443 135.21157,25.0034256 135.088209,25.4020379 L134.896164,26.0225847 C134.783154,26.3877474 134.661059,26.7500361 134.529992,27.1091132 L133.403285,30.195886 C133.377367,30.266894 133.351798,30.3380293 133.326581,30.4092894 L132.773288,31.9728027 C132.380312,33.0832886 132.105939,34.232238 131.95475,35.4004635 L131.749015,36.9901566 C131.673372,37.5746461 131.620319,38.1618377 131.589975,38.7504201 L131.556882,39.3923252 C131.548589,39.5531857 131.538607,39.7139546 131.526936,39.8746053 L131.290855,43.1243825 C131.279173,43.2851946 131.269182,43.4461252 131.260884,43.6071474 L131.09903,46.7479242 C131.033125,48.0268136 131.074143,49.3089732 131.221657,50.581035 L131.284888,51.1263011 C131.398502,52.106031 131.59234,53.0747827 131.86445,54.0227991 L131.979942,54.4251681 C132.175353,55.1059726 132.409824,55.7749539 132.682189,56.4287871 L132.921491,57.003249 C133.034537,57.2746256 133.152776,57.5438098 133.276143,57.8106533 L133.524126,58.3470437 C133.779938,58.9003694 134.091662,59.4260853 134.454435,59.9159883 L134.628282,60.150758 C134.876063,60.4853702 135.132883,60.8131924 135.398461,61.1338622 L135.772228,61.5851659 C136.286144,62.2056902 136.850753,62.7824199 137.460223,63.3093976 L137.89687,63.6869444 C138.508338,64.2156498 139.184405,64.6646522 139.908881,65.0231997 L140.890834,65.5091735 C140.963601,65.5451865 141.036178,65.5815846 141.10856,65.6183662 L141.772193,65.9555979 C142.286234,66.216813 142.819628,66.4380553 143.367644,66.6173625 L145.258159,67.2359273 C145.449011,67.298373 145.640673,67.3583166 145.833095,67.4157426 L146.95942,67.7518802 C147.772286,67.99447 148.60868,68.1497841 149.454448,68.215194 L150.671144,68.3092907 C150.708187,68.3121555 150.745222,68.3151101 150.78225,68.3181543 L151.908912,68.4107826 C152.6963,68.4755175 153.478954,68.5886848 154.252429,68.7496416 L154.273319,68.7539886 C155.057588,68.9171917 155.860852,68.9697368 156.6597,68.9100926 L156.975979,68.8864782 C157.718405,68.8310466 158.455782,68.721396 159.182212,68.5584037 L159.425466,68.5038237 C159.990294,68.3770911 160.561511,68.2807428 161.136658,68.215194 C161.711756,68.1496508 162.29011,68.1168 162.86893,68.1168 L163.091103,68.1168 C163.812579,68.1168 164.528132,67.9865776 165.203351,67.7323951 L165.757809,67.5236722 C166.101453,67.3943092 166.44195,67.2567355 166.779006,67.1110695 L167.636674,66.7404108 C168.436407,66.3947897 168.895217,65.546257 168.74653,64.687817 L166.90895,54.0785961 C166.755851,53.1946778 165.935829,52.5865974 165.045545,52.6968023 C163.987435,52.8277817 162.920179,52.869473 161.855076,52.8214348 L160.8645,52.776758 C159.691457,52.7238515 158.537002,52.4639967 157.454423,52.0091881 L157.151416,51.8818899 C156.264957,51.5094746 155.42173,51.0415491 154.636673,50.4864026 L154.42577,50.337265 C153.786672,49.8853324 153.25385,49.2994279 152.86446,48.6204102 C152.47203,47.9360903 152.169769,47.2038817 151.965201,46.4420107 L151.850856,46.0161592 C151.588007,45.0372321 151.425035,44.0341887 151.364435,43.0224004 L151.347142,42.7336701 C151.298005,41.9132473 151.318651,41.0901331 151.408858,40.2732055 L151.424288,40.1334709 C151.504108,39.410616 151.666704,38.6993234 151.908878,38.0135815 C152.151457,37.326694 152.338101,36.6213177 152.466988,35.904347 L152.880712,33.6028865 C152.89947,33.4985369 152.91895,33.3943182 152.939149,33.290238 L158.489455,4.69190004 C158.595762,4.14415075 158.237901,3.61393414 157.690152,3.5076281 C157.520501,3.47470263 157.34524,3.48584569 157.181126,3.53999193 Z" id="path-13"></path>
        <filter x="-6.6%" y="-3.8%" width="113.2%" height="107.6%" filterUnits="objectBoundingBox" id="filter-14">
            <feGaussianBlur stdDeviation="2" in="SourceAlpha" result="shadowBlurInner1"></feGaussianBlur>
            <feOffset dx="0" dy="1" in="shadowBlurInner1" result="shadowOffsetInner1"></feOffset>
            <feComposite in="shadowOffsetInner1" in2="SourceAlpha" operator="arithmetic" k2="-1" k3="1" result="shadowInnerInner1"></feComposite>
            <feColorMatrix values="0 0 0 0 0.249830163   0 0 0 0 0.0373745543   0 0 0 0 0.0373745543  0 0 0 0.275841346 0" type="matrix" in="shadowInnerInner1"></feColorMatrix>
        </filter>
        <path d="M170.21107,1.7126426 L167.293555,14.7578313 C167.177754,15.2756145 167.503625,15.7892356 168.021409,15.9050362 C168.124874,15.9281759 168.231457,15.9340292 168.336834,15.9223587 L168.973654,15.8518309 C169.440221,15.8001586 169.90826,15.7627821 170.377114,15.7397538 L170.687237,15.7245217 C171.361532,15.691403 172.037442,15.7201482 172.70649,15.8103968 L172.858722,15.8309316 C173.558534,15.92533 174.240384,16.1234306 174.881832,16.4187138 L174.987843,16.4675149 C175.56195,16.7317985 176.12492,17.0196335 176.675319,17.3302872 L176.816941,17.410221 C177.461179,17.7738391 178.078848,18.1826415 178.665308,18.6335583 L178.938798,18.8438395 C179.451797,19.2382737 179.862103,19.7506113 180.134916,20.3373986 C180.409715,20.9284578 180.580978,21.5623161 180.641239,22.2113417 L180.66876,22.5077392 C180.712227,22.9758891 180.68779,23.4478641 180.596208,23.9090217 L180.486952,24.4591764 C180.467772,24.5557534 180.458113,24.653979 180.458113,24.752442 C180.458113,24.834334 180.524271,24.9008411 180.606162,24.9012723 L198.326473,24.9945805 C198.934144,24.9977803 199.468787,24.5938989 199.631815,24.0084964 C199.815045,23.350551 199.907937,22.6707414 199.907937,21.9877587 L199.907937,20.0388478 L199.907937,20.0388478 C199.939321,19.1796377 199.968549,18.3204275 200,17.4611522 L199.826734,16.4898605 C199.635754,15.4192694 199.354642,14.3667326 198.986397,13.3434855 L198.907258,13.1235795 C198.59198,12.2475118 198.18588,11.4068459 197.695594,10.6153188 L197.387034,10.1171722 C197.101199,9.65571409 196.831789,9.18428184 196.579312,8.70376109 L196.35876,8.28400362 C195.965253,7.5350724 195.393047,6.89479549 194.692868,6.41993229 L194.473725,6.27130894 C193.673827,5.72881636 192.917411,5.12482783 192.211342,4.46482609 L191.719197,4.00478965 C191.344491,3.65453091 190.899188,3.38848815 190.413183,3.22452174 L190.371773,3.2105511 C189.907866,3.05404003 189.449075,2.8827562 188.996101,2.69696142 L188.708198,2.57887319 C188.063715,2.31452805 187.404443,2.08778499 186.733702,1.89978619 L185.898667,1.66573809 C185.712342,1.61351381 185.526683,1.55894019 185.341735,1.50203028 L184.329477,1.19055072 C183.471277,0.926476216 182.591927,0.736812431 181.701175,0.623662271 L180.448398,0.464524849 C180.086764,0.418587239 179.724088,0.381253759 179.360679,0.352556052 L178.320235,0.270394238 C177.717864,0.222826216 177.113853,0.199014493 176.509607,0.199014493 L174.750938,0.199014493 C174.315969,0.199014493 173.881087,0.186675492 173.446818,0.162012377 L172.346225,0.0995072464 C171.335601,0.0421116627 170.431999,0.724793723 170.21107,1.7126426 Z" id="path-15"></path>
        <filter x="-7.6%" y="-10.0%" width="115.2%" height="120.0%" filterUnits="objectBoundingBox" id="filter-16">
            <feGaussianBlur stdDeviation="2" in="SourceAlpha" result="shadowBlurInner1"></feGaussianBlur>
            <feOffset dx="0" dy="1" in="shadowBlurInner1" result="shadowOffsetInner1"></feOffset>
            <feComposite in="shadowOffsetInner1" in2="SourceAlpha" operator="arithmetic" k2="-1" k3="1" result="shadowInnerInner1"></feComposite>
            <feColorMatrix values="0 0 0 0 0.249830163   0 0 0 0 0.0373745543   0 0 0 0 0.0373745543  0 0 0 0.275841346 0" type="matrix" in="shadowInnerInner1"></feColorMatrix>
        </filter>
        <path d="M163.598206,31.5990783 L161.506174,41.4384251 C161.276456,42.5188434 161.966086,43.5809183 163.046504,43.8106357 C163.173821,43.8377057 163.303476,43.8522821 163.433625,43.8541577 L173.275199,43.9959865 C174.24849,44.0100128 175.070339,44.7227257 175.221965,45.6842363 L178.461463,66.2268754 C178.613599,67.1916198 179.440275,67.905388 180.416892,67.9152313 L187.197882,67.9835767 C188.146661,67.9931394 188.971579,67.334741 189.172626,66.4074578 L196.479433,32.7064631 C196.71348,31.6269744 196.028114,30.5621434 194.948626,30.3280964 C194.815422,30.2992163 194.679616,30.2840282 194.543324,30.2827689 L165.572954,30.0151039 C164.621786,30.0063158 163.796029,30.6686676 163.598206,31.5990783 Z" id="path-17"></path>
        <filter x="-6.9%" y="-6.6%" width="113.9%" height="113.2%" filterUnits="objectBoundingBox" id="filter-18">
            <feGaussianBlur stdDeviation="2" in="SourceAlpha" result="shadowBlurInner1"></feGaussianBlur>
            <feOffset dx="0" dy="1" in="shadowBlurInner1" result="shadowOffsetInner1"></feOffset>
            <feComposite in="shadowOffsetInner1" in2="SourceAlpha" operator="arithmetic" k2="-1" k3="1" result="shadowInnerInner1"></feComposite>
            <feColorMatrix values="0 0 0 0 0.249830163   0 0 0 0 0.0373745543   0 0 0 0 0.0373745543  0 0 0 0.275841346 0" type="matrix" in="shadowInnerInner1"></feColorMatrix>
        </filter>
    </defs>
    <g id="页面-1" stroke="none" stroke-width="1" fill="none" fill-rule="evenodd">
        <g id="TAG-CHINA">
            <g id="矩形">
                <use fill="url(#linearGradient-1)" fill-rule="evenodd" xlink:href="#path-2"></use>
                <use fill="black" fill-opacity="1" filter="url(#filter-3)" xlink:href="#path-2"></use>
                <path d="M97.4276376,-3.93619317e-15 L158.572362,3.93619317e-15 C192.450075,-2.28704159e-15 204.734952,3.52737322 217.120137,10.1510427 C229.505322,16.7747123 239.225288,26.4946781 245.848957,38.8798633 C252.472627,51.2650485 256,63.5499255 256,97.4276376 L256,158.572362 C256,192.450075 252.472627,204.734952 245.848957,217.120137 C239.225288,229.505322 229.505322,239.225288 217.120137,245.848957 C204.734952,252.472627 192.450075,256 158.572362,256 L97.4276376,256 C63.5499255,256 51.2650485,252.472627 38.8798633,245.848957 C26.4946781,239.225288 16.7747123,229.505322 10.1510427,217.120137 C3.52737322,204.734952 1.52469439e-15,192.450075 -2.62412878e-15,158.572362 L2.62412878e-15,97.4276376 C-1.52469439e-15,63.5499255 3.52737322,51.2650485 10.1510427,38.8798633 C16.7747123,26.4946781 26.4946781,16.7747123 38.8798633,10.1510427 C51.2650485,3.52737322 63.5499255,2.28704159e-15 97.4276376,-3.93619317e-15 Z" stroke-linejoin="square"></path>
            </g>
            <g id="编组" filter="url(#filter-4)" transform="translate(28.000000, 94.000000)">
                <g id="Fill-1">
                    <use fill="#F2F2F2" fill-rule="evenodd" xlink:href="#path-5"></use>
                    <use fill="black" fill-opacity="1" filter="url(#filter-6)" xlink:href="#path-5"></use>
                </g>
                <g id="Fill-2">
                    <use fill="#F2F2F2" fill-rule="evenodd" xlink:href="#path-7"></use>
                    <use fill="black" fill-opacity="1" filter="url(#filter-8)" xlink:href="#path-7"></use>
                </g>
                <g id="Fill-3">
                    <use fill="#F2F2F2" fill-rule="evenodd" xlink:href="#path-9"></use>
                    <use fill="black" fill-opacity="1" filter="url(#filter-10)" xlink:href="#path-9"></use>
                </g>
                <g id="Fill-4">
                    <use fill="#F2F2F2" fill-rule="evenodd" xlink:href="#path-11"></use>
                    <use fill="black" fill-opacity="1" filter="url(#filter-12)" xlink:href="#path-11"></use>
                </g>
                <g id="Fill-5">
                    <use fill="#F2F2F2" fill-rule="evenodd" xlink:href="#path-13"></use>
                    <use fill="black" fill-opacity="1" filter="url(#filter-14)" xlink:href="#path-13"></use>
                </g>
                <g id="Fill-6">
                    <use fill="#F2F2F2" fill-rule="evenodd" xlink:href="#path-15"></use>
                    <use fill="black" fill-opacity="1" filter="url(#filter-16)" xlink:href="#path-15"></use>
                </g>
                <g id="Fill-7">
                    <use fill="#F2F2F2" fill-rule="evenodd" xlink:href="#path-17"></use>
                    <use fill="black" fill-opacity="1" filter="url(#filter-18)" xlink:href="#path-17"></use>
                </g>
            </g>
        </g>
    </g>
</svg>